<svg xmlns="http://www.w3.org/2000/svg" version="1.1" xmlns:xlink="http://www.w3.org/1999/xlink" width="64" height="64"><svg id="SvgjsSvg1005" xmlns="http://www.w3.org/2000/svg" width="64" height="64" viewBox="0 0 64 64"><title>thumb</title><path d="M22,28H4A3.5,3.5,0,0,0,.5,31.5v26A3.5,3.5,0,0,0,4,61H23.5V29.5A1.5,1.5,0,0,0,22,28ZM6.5,55.5a1.5,1.5,0,0,1-3,0v-22a1.5,1.5,0,0,1,3,0Z" style="fill:#3e3ef4"></path><path d="M56,55a1.5,1.5,0,0,1-1.5-1.5v-23a1.5,1.5,0,0,1,3,0v23A1.5,1.5,0,0,1,56,55Z"></path><path d="M58,23H45.5V14.5A11.513,11.513,0,0,0,34,3a3.5,3.5,0,0,0-3.5,3.5V23.879l-4,4v4.242l6.56-6.56A1.5,1.5,0,0,0,33.5,24.5V6.5A.5.5,0,0,1,34,6a8.51,8.51,0,0,1,8.5,8.5v10A1.5,1.5,0,0,0,44,26H58a2.5,2.5,0,0,1,2.5,2.5v27A2.5,2.5,0,0,1,58,58H26.5v3H58a5.506,5.506,0,0,0,5.5-5.5v-27A5.506,5.506,0,0,0,58,23Z"></path></svg><style>@media (prefers-color-scheme: light) { :root { filter: none; } }
@media (prefers-color-scheme: dark) { :root { filter: none; } }
</style></svg>